<svg xmlns="http://www.w3.org/2000/svg" width="58" height="58"><path fill="#ADD136" d="M57.033 17.397a.965.965 0 01-.966-.965V3.452l-10.781 10.78a25.735 25.735 0 012.302 2.905l.018-.018c.149.215.281.445.423.665l.105.166a25.943 25.943 0 014.063 13.943c0 14.418-11.685 26.106-26.099 26.106C11.685 57.999 0 46.311 0 31.893 0 17.476 11.685 5.789 26.098 5.789a25.976 25.976 0 0114.725 4.556l-1.381 1.381A24.096 24.096 0 0026.098 7.72c-13.383 0-24.164 10.784-24.164 24.173 0 .347.038.686.052 1.032l12.025-12.026a.966.966 0 011.367 0l10.253 10.252 29.221-29.22H41.567a.967.967 0 110-1.932h15.466c.534 0 .967.432.967.966v15.467a.966.966 0 01-.967.965z"/></svg>