<svg aria-hidden="true" style="position: absolute; width: 0; height: 0; overflow: hidden;" version="1.1" xmlns="http://www.w3.org/2000/svg" xmlns:xlink="http://www.w3.org/1999/xlink">
<defs>
<symbol id="arrow-details" viewBox="0 0 24 32">
<path fill="#add136" style="fill: var(--color1, #add136)" d="M-0.002 29.72v-27.468c0-0.878 0.396-1.626 1.060-2 0.257-0.15 0.566-0.239 0.895-0.239 0.378 0 0.729 0.117 1.019 0.317l-0.006-0.004c1.396 0.92 19.176 13.12 20.072 13.746 0.604 0.424 0.964 1.148 0.964 1.942 0 0.79-0.362 1.51-0.966 1.928-1.728 1.182-19.186 13.144-20.020 13.708-0.614 0.418-1.312 0.466-1.912 0.132-0.672-0.376-1.106-1.184-1.106-2.062z"></path>
</symbol>
<symbol id="arrow-left" viewBox="0 0 20 32">
<path d="M-0.007 16.005c0-1.058 0.442-2.013 1.151-2.69l0.001-0.001 12.614-12.2c0.723-0.689 1.703-1.113 2.782-1.113s2.060 0.424 2.784 1.114l-0.002-0.002c0.711 0.678 1.153 1.633 1.153 2.691s-0.442 2.013-1.152 2.69l-0.001 0.001-9.832 9.509 9.832 9.509c0.711 0.678 1.153 1.633 1.153 2.691s-0.442 2.013-1.152 2.69l-0.001 0.001c-0.722 0.69-1.703 1.115-2.782 1.115s-2.060-0.425-2.784-1.116l0.002 0.001-12.614-12.198c-0.71-0.679-1.152-1.634-1.152-2.691 0-0 0-0.001 0-0.001v0z"></path>
</symbol>
<symbol id="arrow-right" viewBox="0 0 20 32">
<path d="M20.491 16.005c-0-1.058-0.442-2.013-1.151-2.69l-0.001-0.001-12.614-12.2c-0.723-0.689-1.703-1.113-2.782-1.113s-2.060 0.424-2.784 1.114l0.002-0.002c-0.711 0.678-1.153 1.633-1.153 2.691s0.442 2.013 1.152 2.69l0.001 0.001 9.832 9.509-9.832 9.509c-0.711 0.678-1.153 1.633-1.153 2.691s0.442 2.013 1.152 2.69l0.001 0.001c0.722 0.69 1.703 1.115 2.782 1.115s2.060-0.425 2.784-1.116l-0.002 0.001 12.614-12.198c0.71-0.679 1.152-1.634 1.152-2.692 0-0 0-0 0-0.001v0z"></path>
</symbol>
<symbol id="diagram" viewBox="0 0 32 32">
<path fill="#add136" style="fill: var(--color1, #add136)" d="M31.466 9.598c-0 0-0 0-0.001 0-0.294 0-0.532-0.238-0.532-0.532v0-7.161l-5.948 5.948c0.442 0.481 0.86 1.004 1.239 1.555l0.031 0.048 0.010-0.010c0.082 0.119 0.155 0.246 0.233 0.367l0.058 0.092c1.406 2.177 2.242 4.836 2.242 7.691 0 0.001 0 0.001 0 0.002v-0c0 7.955-6.447 14.403-14.399 14.403s-14.399-6.449-14.399-14.403c0-7.954 6.447-14.402 14.399-14.402 0.005 0 0.011 0 0.017 0 3.030 0 5.84 0.94 8.155 2.545l-0.047-0.031-0.762 0.762c-2.065-1.385-4.606-2.21-7.34-2.21-0.008 0-0.015 0-0.023 0h0.001c-7.384 0-13.332 5.95-13.332 13.337 0 0.191 0.021 0.378 0.029 0.569l6.634-6.635c0.096-0.097 0.23-0.156 0.377-0.156s0.281 0.060 0.377 0.156v0l5.657 5.656 16.122-16.121h-7.33c-0.007 0-0.016 0.001-0.024 0.001-0.295 0-0.534-0.239-0.534-0.534s0.239-0.534 0.534-0.534c0.009 0 0.017 0 0.025 0.001l-0.001-0h8.533c0.295 0 0.534 0.238 0.534 0.533v8.534c-0 0.294-0.239 0.532-0.533 0.532-0 0-0 0-0.001 0h0z"></path>
</symbol>
<symbol id="logo" viewBox="0 0 29 32">
<path fill="#8fc63d" style="fill: var(--color3, #8fc63d)" d="M26.222 32c-1.718 0-3.111-1.393-3.111-3.111v0-19.556c0-1.718 1.393-3.111 3.111-3.111s3.111 1.393 3.111 3.111v0 19.556c0 1.718-1.393 3.111-3.111 3.111v0zM14.667 32c-1.718 0-3.111-1.393-3.111-3.111v0-25.778c0-1.718 1.393-3.111 3.111-3.111s3.111 1.393 3.111 3.111v0 25.778c0 1.718-1.393 3.111-3.111 3.111v0zM3.111 32c-1.718 0-3.111-1.393-3.111-3.111v0-11.556c0-1.718 1.393-3.111 3.111-3.111s3.111 1.393 3.111 3.111v0 11.556c0 1.718-1.393 3.111-3.111 3.111v0zM3.111 12.444c-1.718 0-3.111-1.393-3.111-3.111s1.393-3.111 3.111-3.111v0c1.718 0 3.111 1.393 3.111 3.111s-1.393 3.111-3.111 3.111v0z"></path>
</symbol>
<symbol id="thought" viewBox="0 0 77 32">
<path fill="#fff" style="fill: var(--color2, #fff)" d="M74.602 28.145h-54.361l-4.241 3.855v-3.855h-14.072c-1.065 0-1.928-0.863-1.928-1.928v-24.289c0-1.065 0.863-1.928 1.928-1.928h72.675c1.065 0 1.928 0.863 1.928 1.928v24.289c0 1.065-0.863 1.928-1.928 1.928z"></path>
</symbol><symbol id="menu" width="40" height="40" ><path fill-rule="evenodd" clip-rule="evenodd" d="M8 14.667V12h24v2.667H8zm0 6.666h24v-2.666H8v2.666zM8 28h24v-2.667H8V28z"/></symbol><symbol id="close-menu" width="40" height="40"><path d="M29.667 12.88L27.787 11l-7.454 7.453L12.88 11 11 12.88l7.453 7.453L11 27.787l1.88 1.88 7.453-7.454 7.454 7.454 1.88-1.88-7.454-7.454 7.454-7.453z"/></symbol>
</defs>
</svg>
